# ProBuilder 4.2.3
# https://unity3d.com/unity/features/worldbuilding/probuilder
# 07/06/2020 19:47:40

mtllib ./road_straight_10m.mtl
o road_straight_10m

g road_straight_10m
v 0 0 0
v -10 0 0
v 0 0.3 0
v -10 0.3 0
v -10 0 -8
v 0 0 -8
v -10 0.3 -8
v 0 0.3 -8
v -10 0.3 -7.6
v 0 0.3 -7.6
v -10 0.09999999 -7.5
v 0 0.09999999 -7.5
v 0 0.09999999 -0.5
v -10 0.09999999 -0.5
v 0 0.3 -0.4
v -10 0.3 -0.4

vt 0 0
vt -1 0
vt 0 1
vt -1 1
vt 1 0
vt 1 1
vt 1 -0.95
vt 1 -1
vt 0 -1
vt 0 -0.95
vt 1 -0.9375
vt 0 -0.9375
vt 0 -0.0625
vt 1 -0.0625
vt 0 -0.05
vt 1 -0.05
vt -1 1.017633
vt 0 1.017633
vt -1 0.3508497
vt 0 0.3508497
vt 0 0.9988867
vt 1 0.9988867
vt 0 0.332103
vt 1 0.332103

vn 0 0 8
vn 0 0 -8
vn 0 0.3 2.861022E-05
vn 0 0.005624007 7.998594
vn 0 0.005624013 -7.998594

usemtl road_asphalt
f 14/14/3 13/13/3 12/12/3 11/11/3

usemtl road_curb
f 3/3/1 4/4/1 2/2/1 1/1/1
f 7/6/2 8/3/2 6/1/2 5/5/2
f 9/7/3 10/10/3 8/9/3 7/8/3
f 4/5/3 3/1/3 15/15/3 16/16/3
f 11/19/4 12/20/4 10/18/4 9/17/4
f 13/23/5 14/24/5 16/22/5 15/21/5

